<mxfile host="app.diagrams.net" modified="2024-04-22T14:15:23.791Z" agent="Mozilla/5.0 (X11; Linux x86_64) AppleWebKit/537.36 (KHTML, like Gecko) Chrome/124.0.0.0 Safari/537.36" etag="3" version="14.6.13" type="device">
    <diagram id="ErrorHandlingFlowchart" name="Page-1">
        <mxGraphModel dx="1082" dy="610" grid="1" gridSize="10" guides="1" tooltips="1" connect="1" arrows="1" fold="1" page="1" pageScale="1" pageWidth="827" pageHeight="1169" math="0" shadow="0">
            <root>
                <mxCell id="0"/>
                <mxCell id="1" parent="0"/>
                <mxCell id="2" value="API Request Initiated" style="ellipse;whiteSpace=wrap;html=1;aspect=fixed;fillColor=#ffffff;" vertex="1" parent="1">
                    <mxGeometry x="50" y="50" width="100" height="50" as="geometry"/>
                </mxCell>
                <mxCell id="3" value="Validate Token" style="rounded=0;whiteSpace=wrap;html=1;fillColor=#dae8fc;" vertex="1" parent="1">
                    <mxGeometry x="200" y="50" width="100" height="50" as="geometry"/>
                </mxCell>
                <mxCell id="4" value="Is Token Valid?" style="rhombus;whiteSpace=wrap;html=1;aspect=fixed;fillColor=#f8cecc;" vertex="1" parent="1">
                    <mxGeometry x="350" y="50" width="100" height="50" as="geometry"/>
                </mxCell>
                <mxCell id="5" value="API Access Granted" style="rounded=0;whiteSpace=wrap;html=1;fillColor=#d5e8d4;" vertex="1" parent="1">
                    <mxGeometry x="500" y="20" width="100" height="50" as="geometry"/>
                </mxCell>
                <mxCell id="6" value="Handle Error: Log &amp; Respond" style="rounded=0;whiteSpace=wrap;html=1;fillColor=#ffe6cc;" vertex="1" parent="1">
                    <mxGeometry x="500" y="100" width="100" height="50" as="geometry"/>
                </mxCell>
                <mxCell id="7" value="No" style="edgeStyle=orthogonalEdgeStyle;html=1;endArrow=none;exitX=0.5;exitY=1;entryX=0.5;entryY=0;endFill=1;startArrow=none;" edge="1" parent="1" source="4" target="6">
                    <mxGeometry relative="1" as="geometry"/>
                </mxCell>
                <mxCell id="8" value="Yes" style="edgeStyle=orthogonalEdgeStyle;html=1;endArrow=none;exitX=1;exitY=0.5;entryX=0;entryY=0.5;endFill=1;startArrow=none;" edge="1" parent="1" source="4" target="5">
                    <mxGeometry relative="1" as="geometry"/>
                </mxCell>
                <mxCell id="9" value="Forward API Request" style="edgeStyle=orthogonalEdgeStyle;html=1;endArrow=block;exitX=1;exitY=0.5;entryX=0;entryY=0.5;endFill=1;" edge="1" parent="1" source="2" target="3">
                    <mxGeometry relative="1" as="geometry"/>
                </mxCell>
            </root>
        </mxGraphModel>
    </diagram>
</mxfile>
